<?xml version="1.0" standalone="no"?>
<!DOCTYPE svg PUBLIC "-//W3C//DTD SVG 20010904//EN"
 "http://www.w3.org/TR/2001/REC-SVG-20010904/DTD/svg10.dtd">
<svg version="1.0" xmlns="http://www.w3.org/2000/svg"
 width="500.000000pt" height="500.000000pt" viewBox="0 0 500.000000 500.000000"
 preserveAspectRatio="xMidYMid meet">
<metadata>
Created by potrace 1.14, written by Peter Selinger 2001-2017
</metadata>
<g transform="translate(0.000000,500.000000) scale(0.100000,-0.100000)"
fill="#000000" stroke="none">
<path d="M2688 4465 c-2 -1 -68 -5 -148 -9 -80 -4 -163 -9 -185 -11 -22 -2
-60 -6 -85 -9 -60 -6 -183 -32 -300 -63 -52 -13 -102 -26 -110 -28 -82 -18
-381 -149 -474 -208 -25 -15 -132 -90 -171 -120 -120 -90 -282 -243 -340 -322
-17 -22 -33 -42 -36 -45 -13 -11 -108 -158 -129 -200 -28 -55 -28 -121 0 -160
11 -16 20 -32 20 -38 0 -5 7 -15 15 -22 12 -10 12 -17 3 -34 -6 -11 -11 -22
-10 -23 10 -15 -4 -33 -31 -38 -17 -4 -46 -18 -63 -31 -58 -43 -75 -156 -33
-215 15 -21 17 -33 10 -52 -9 -23 -7 -323 4 -480 4 -57 1 -91 -11 -128 -11
-31 -14 -64 -10 -89 3 -21 2 -49 -3 -63 -6 -16 -4 -39 9 -78 15 -43 18 -71 13
-139 -4 -47 -7 -123 -7 -170 -1 -80 1 -87 31 -130 33 -45 33 -45 18 -93 -8
-26 -11 -47 -8 -47 3 0 0 -7 -7 -15 -7 -8 -23 -15 -36 -15 -71 0 -148 -74
-124 -120 10 -19 12 -19 -100 -36 -61 -10 -88 -18 -130 -36 -50 -23 -89 -60
-91 -86 -8 -97 31 -136 186 -185 28 -9 70 -19 95 -22 25 -3 53 -7 63 -8 10 -2
31 -20 48 -40 54 -66 139 -95 359 -122 19 -2 122 -5 227 -5 106 -1 195 -6 198
-11 4 -5 13 -9 22 -9 9 0 29 -16 45 -35 39 -45 102 -81 174 -100 149 -39 403
-46 613 -18 81 10 402 9 501 -2 139 -16 412 -11 510 9 102 21 140 38 200 87
25 20 60 40 78 44 19 4 136 9 260 11 125 1 238 6 252 9 14 3 41 8 60 11 134
21 211 50 264 100 25 24 28 32 23 71 -3 30 -12 49 -26 59 -11 8 -21 19 -21 24
0 12 56 28 125 34 208 20 332 86 312 167 -10 38 -63 86 -120 108 -62 23 -285
71 -351 75 -27 2 -28 5 -31 57 -3 62 -13 98 -32 117 -11 11 -8 21 16 55 44 65
47 85 36 240 -5 70 -4 86 7 82 7 -3 40 -19 72 -34 61 -30 95 -32 163 -10 38
12 73 57 73 91 -1 32 -41 78 -70 80 -14 0 -41 -4 -61 -9 -28 -8 -44 -7 -65 3
-16 7 -50 22 -75 33 -44 18 -46 21 -43 52 2 18 5 34 7 35 4 5 80 6 97 2 8 -2
31 -11 50 -20 77 -35 112 -32 134 11 27 53 -7 118 -79 151 -47 21 -145 39
-188 33 l-25 -3 2 212 c2 234 -2 283 -33 351 -16 35 -19 52 -11 71 25 67 6
143 -49 192 -17 15 -28 30 -26 34 2 4 30 3 62 -2 67 -11 203 -4 233 12 11 6
20 9 20 6 0 -10 113 35 177 71 65 36 173 132 173 153 0 5 4 10 10 10 8 0 40
50 45 70 1 3 7 19 14 35 26 63 34 189 13 205 -4 3 -14 19 -24 35 -21 39 -82
73 -142 80 -55 7 -128 -12 -219 -56 -68 -33 -95 -32 -77 2 20 37 15 178 -8
229 -40 87 -108 131 -195 125 -59 -4 -97 -28 -183 -115 -38 -39 -82 -78 -98
-87 -27 -14 -29 -14 -63 19 -46 43 -90 84 -144 132 -50 44 -180 131 -254 169
-46 23 -207 87 -230 91 -5 1 -14 4 -20 8 -11 6 -138 39 -170 44 -46 6 -102 15
-125 20 -14 2 -61 7 -105 9 -44 3 -92 7 -107 9 -15 2 -29 2 -30 1z"/>
<path d="M4461 3106 c-14 -15 -25 -42 -28 -68 -7 -59 27 -98 85 -98 46 0 70
22 82 74 19 85 -83 152 -139 92z m89 -45 c14 -34 6 -66 -17 -75 -46 -18 -78
34 -49 79 22 34 51 32 66 -4z"/>
</g>
</svg>
